<svg width="500" height="500" viewBox="0 0 500 500" fill="none" xmlns="http://www.w3.org/2000/svg">
<rect x="63" y="87" width="389.645" height="274.132" rx="14" stroke="black" stroke-width="12"/>
<rect x="123.995" y="137.398" width="223.145" height="171.747" rx="15" stroke="black" stroke-width="10"/>
<path d="M112.245 386.847C107.769 377.552 114.542 366.774 124.859 366.774H391.909C398.243 366.774 403.787 371.026 405.43 377.143L410.055 394.369C412.444 403.263 405.743 412 396.534 412H133.153C127.775 412 122.872 408.919 120.539 404.074L112.245 386.847Z" stroke="black" stroke-width="12"/>
<ellipse cx="410.161" cy="116.502" rx="10.3325" ry="10.0676" fill="black"/>
<ellipse cx="410.161" cy="169.489" rx="10.3325" ry="10.0676" fill="black"/>
<ellipse cx="410.161" cy="222.476" rx="10.3325" ry="10.0676" fill="black"/>
<ellipse cx="410.161" cy="275.464" rx="10.3325" ry="10.0676" fill="black"/>
<ellipse cx="410.161" cy="324.742" rx="10.3325" ry="10.0676" fill="black"/>
<path d="M171.453 169.489C178.256 179.589 186.289 181.676 196.357 181.676C206.425 181.676 206.425 169.489 229.474 169.489C252.524 169.489 251.199 181.676 267.095 181.676C282.991 181.676 285.641 175.583 299.153 169.489" stroke="black" stroke-width="6"/>
<path d="M171.453 193.863C178.256 203.964 186.289 206.05 196.357 206.05C206.425 206.05 206.425 193.863 229.474 193.863C252.524 193.863 251.199 206.05 267.095 206.05C282.991 206.05 285.641 199.957 299.153 193.863" stroke="black" stroke-width="6"/>
<path d="M171.453 217.708C178.256 227.808 186.289 229.895 196.357 229.895C206.425 229.895 206.425 217.708 229.474 217.708C252.524 217.708 251.199 229.895 267.095 229.895C282.991 229.895 285.641 223.801 299.153 217.708" stroke="black" stroke-width="6"/>
<path d="M171.453 217.708C178.256 227.808 186.289 229.895 196.357 229.895C206.425 229.895 206.425 217.708 229.474 217.708C252.524 217.708 251.199 229.895 267.095 229.895C282.991 229.895 285.641 223.801 299.153 217.708" stroke="black" stroke-width="6"/>
<path d="M171.453 242.082C178.256 252.182 186.289 254.269 196.357 254.269C206.425 254.269 206.425 242.082 229.474 242.082C252.524 242.082 251.199 254.269 267.095 254.269C282.991 254.269 285.641 248.175 299.153 242.082" stroke="black" stroke-width="6"/>
</svg>
