<svg width="400" height="400" viewBox="0 0 400 400" fill="none" xmlns="http://www.w3.org/2000/svg">
<path d="M376.114 173.81C372.923 175.998 371.495 179.7 372.587 182.898C373.93 187.105 376.366 188.872 380.732 188.872C385.603 188.872 388.542 185.843 388.542 180.794C388.542 174.23 381.32 170.191 376.114 173.81ZM384.259 174.988C386.862 176.334 388.122 180.457 386.862 183.402C385.267 187.189 381.32 188.704 377.205 187.105C375.106 186.263 373.259 181.888 373.846 179.111C374.77 174.904 380.145 172.716 384.259 174.988Z" fill="black"/>
<path d="M376.785 180.794C376.785 183.15 377.205 185.085 377.625 185.085C378.129 185.085 378.465 184.328 378.465 183.402C378.465 182.477 378.801 181.72 379.305 181.72C379.725 181.72 380.564 182.477 381.152 183.402C381.74 184.328 382.748 185.085 383.419 185.085C384.343 185.085 384.259 184.665 383 183.318C381.824 181.972 381.74 181.467 382.58 180.962C383.168 180.541 383.503 179.532 383.335 178.69C383.168 177.512 382.244 177.007 379.893 176.839L376.785 176.587V180.794ZM382.244 178.774C382.244 179.195 381.404 179.7 380.396 179.868C379.053 180.037 378.465 179.7 378.465 178.774C378.465 177.849 379.053 177.512 380.396 177.68C381.404 177.849 382.244 178.27 382.244 178.774Z" fill="black"/>
<path d="M57.3471 189.798C44.0791 194.678 36.1855 210.582 41.9797 220.763C48.5297 232.291 68.3477 229.346 77.081 215.546C80.356 210.413 81.6156 204.187 80.44 199.643C79.2644 195.267 75.8214 191.144 72.2105 189.629C68.7676 188.115 61.5458 188.199 57.3471 189.798ZM66.9201 202.083C72.7983 208.478 60.6221 220.679 54.156 214.789C52.4765 213.274 52.1406 208.73 53.5682 205.869C56.2554 200.4 63.4772 198.38 66.9201 202.083Z" fill="black"/>
<path d="M95.0515 189.209C91.7765 190.639 90.265 193.5 84.6387 210.245L78.8445 227.159H84.5547H90.181L93.456 216.64C95.2195 210.834 96.899 206.122 97.1509 206.122C97.4028 206.122 97.4868 210.413 97.4868 215.546C97.3188 225.56 97.9067 228 100.426 228C103.281 228 105.548 225.139 110.587 215.041C113.358 209.488 115.625 205.701 115.625 206.627C115.541 207.468 114.702 212.517 113.61 217.65L111.678 227.159H117.389C122.091 227.159 123.183 226.906 123.519 225.644C123.771 224.887 125.114 217.229 126.542 208.646C129.397 191.817 129.229 189.798 125.282 188.788C122.259 188.03 117.389 188.956 115.541 190.639C114.702 191.396 112.266 195.351 110.167 199.474C108.068 203.598 106.136 206.963 105.968 206.963C105.8 206.963 105.716 203.345 105.8 198.885C105.968 191.817 105.8 190.723 104.373 189.629C102.609 188.367 97.7387 188.115 95.0515 189.209Z" fill="black"/>
<path d="M145.016 189.798C141.489 191.312 137.794 194.762 136.031 198.044C135.023 199.979 128.221 224.971 128.221 226.738C128.221 226.99 130.825 227.159 134.1 227.159H139.894L140.734 223.961C141.237 222.278 142.581 216.64 143.757 211.591C146.024 202.167 147.871 198.97 150.559 199.979C152.49 200.737 151.566 203.85 149.131 205.028C147.452 205.87 146.78 207.132 145.94 210.834C145.352 213.359 145.1 215.715 145.268 215.967C145.52 216.22 147.284 216.135 149.131 215.799C162.231 213.611 168.613 194.846 158.032 189.798C154.589 188.115 148.879 188.115 145.016 189.798Z" fill="black"/>
<path d="M304.148 190.05C299.865 191.985 295.666 196.782 294.575 200.821C294.155 202.588 292.475 209.235 290.88 215.546L287.941 227.159H293.987H299.949L302.888 214.789C306.079 201.157 308.262 196.95 310.866 199.474C312.545 201.073 311.705 203.513 309.186 204.439C307.843 204.944 307.003 206.29 306.331 209.067C305.407 212.601 305.491 213.19 306.835 214.116C308.262 215.21 308.262 215.462 306.835 220.679C306.079 223.709 305.407 226.401 305.407 226.654C305.407 226.906 308.011 227.159 311.202 227.159C316.072 227.159 317.164 226.906 317.5 225.644C317.668 224.887 318.507 221.437 319.347 218.155C320.691 212.433 320.691 211.928 319.347 209.909C317.919 207.721 317.919 207.637 320.019 205.533C323.21 202.335 324.386 197.287 322.706 193.668C320.271 188.62 311.202 186.852 304.148 190.05Z" fill="black"/>
<path d="M336.73 189.713C335.302 190.302 333.623 191.733 333.035 192.743C332.195 194.341 321.362 226.065 321.362 226.99C321.362 227.074 323.882 227.159 326.989 226.99L332.615 226.738L336.142 215.799L339.669 204.86L339.753 215.462C339.837 227.327 340.509 229.01 344.623 227.495C346.303 226.906 348.066 224.213 352.349 216.051C355.372 210.161 357.891 205.449 357.975 205.533C358.059 205.617 357.219 210.245 356.128 215.799C355.036 221.352 354.112 226.149 354.112 226.485C354.112 226.906 356.716 227.159 359.823 227.159H365.533L368.304 211.339C369.732 202.672 370.907 194.594 370.907 193.332C370.907 190.471 368.136 188.451 364.357 188.451C359.235 188.451 357.136 190.302 352.517 199.138L348.318 207.384L348.234 199.559C348.234 192.995 347.982 191.565 346.555 190.134C344.623 188.199 340.677 187.946 336.73 189.713Z" fill="black"/>
<path d="M26.0246 191.48C17.7951 195.52 12.0849 204.187 12.0009 212.854C11.9169 221.773 17.7112 227.159 27.3682 227.159H32.4067L33.7503 222.446C34.506 219.838 34.8419 217.398 34.4221 216.977C34.0862 216.64 32.2387 216.22 30.4753 216.051C28.124 215.883 26.7804 215.21 25.5208 213.527C24.0092 211.507 24.0092 211.002 25.0169 207.721C26.5285 203.177 29.5515 200.989 34.9259 200.4C39.5445 199.979 39.2086 200.484 41.3919 191.565L41.8958 189.293H36.1015C31.5669 189.293 29.3836 189.798 26.0246 191.48Z" fill="black"/>
<path d="M166.934 203.429C163.071 219.165 163.071 221.437 167.018 225.223C169.285 227.411 170.041 227.579 175.667 227.579C181.125 227.579 182.217 227.327 185.408 225.055C191.79 220.595 192.378 219.165 198.424 193.668L199.432 189.209L193.553 189.461L187.591 189.713L184.484 202.083C181.377 214.537 180.286 217.061 178.018 217.061C175.751 217.061 175.919 214.537 178.942 202.504C180.621 195.856 181.965 190.134 181.965 189.882C181.965 189.545 179.362 189.293 176.171 189.293H170.377L166.934 203.429Z" fill="black"/>
<path d="M202.539 192.406C202.287 194.173 201.783 196.445 201.531 197.455C201.111 199.222 201.447 199.39 204.134 199.39C205.814 199.39 207.157 199.811 207.157 200.232C207.157 200.737 205.814 206.459 204.218 212.938C202.623 219.501 201.279 225.391 201.279 225.98C201.279 226.906 202.707 227.159 206.989 227.159H212.616L215.975 213.443L219.334 199.811L222.777 199.559C226.136 199.306 226.219 199.222 227.143 195.099C227.731 192.743 228.151 190.471 228.151 190.05C228.151 189.629 222.777 189.293 215.639 189.293H203.127L202.539 192.406Z" fill="black"/>
<path d="M228.067 208.226L223.28 227.243L229.243 226.99L235.205 226.738L236.968 219.585C238.732 212.601 238.816 212.433 241.419 212.18C244.694 211.844 244.862 212.77 242.511 221.352L240.831 227.243L246.877 226.99L252.923 226.738L257.29 209.067C259.725 199.306 261.741 190.891 261.741 190.302C261.741 189.629 260.061 189.293 256.03 189.293H250.32L248.725 195.772C247.129 202.167 246.961 202.335 244.358 202.588C241.167 202.924 241.083 202.588 242.846 196.024C244.694 189.124 244.862 189.293 238.396 189.293H232.769L228.067 208.226Z" fill="black"/>
<path d="M278.116 190.218C274.085 191.396 267.703 196.613 265.1 200.821C261.909 205.87 260.481 212.433 261.657 216.893C263.672 224.129 268.207 227.159 277.192 227.159H282.65L283.574 223.54C284.078 221.605 284.666 219.333 284.918 218.491C285.337 217.313 284.75 217.061 281.475 217.061C277.108 217.061 274.337 215.883 274.337 214.116C274.337 213.19 275.848 212.854 280.383 212.685C286.933 212.433 286.345 212.938 288.109 205.87L288.612 203.598H282.734C279.543 203.598 276.856 203.261 276.856 202.756C276.856 201.41 280.383 199.979 285.17 199.474L289.788 198.97L290.88 194.762C291.468 192.406 291.971 190.302 291.971 189.882C291.971 189.04 281.223 189.293 278.116 190.218Z" fill="black"/>
</svg>
