<svg width="400" height="400" viewBox="0 0 400 400" fill="none" xmlns="http://www.w3.org/2000/svg">
<path d="M50.539 178.759C35.752 184.538 26.9546 203.372 33.4122 215.43C40.7122 229.082 62.7992 225.594 72.5324 209.252C76.1824 203.173 77.5862 195.799 76.276 190.418C74.9657 185.236 71.1286 180.353 67.1042 178.559C63.2671 176.766 55.2185 176.865 50.539 178.759ZM61.2081 193.308C67.7594 200.881 54.189 215.33 46.9826 208.355C45.1109 206.561 44.7365 201.18 46.3275 197.792C49.3224 191.315 57.371 188.923 61.2081 193.308Z" fill="black"/>
<path d="M92.5604 178.061C88.9105 179.755 87.2259 183.143 80.9554 202.974L74.4978 223.003H80.8618H87.1323L90.7822 210.547C92.7476 203.671 94.6194 198.091 94.9002 198.091C95.1809 198.091 95.2745 203.173 95.2745 209.252C95.0873 221.11 95.7425 224 98.5501 224C101.732 224 104.259 220.612 109.874 208.654C112.963 202.077 115.49 197.593 115.49 198.689C115.396 199.685 114.46 205.664 113.244 211.743L111.091 223.003H117.455C122.696 223.003 123.913 222.705 124.287 221.21C124.568 220.313 126.065 211.245 127.656 201.08C130.838 181.15 130.651 178.759 126.252 177.563C122.883 176.666 117.455 177.762 115.396 179.755C114.46 180.652 111.746 185.336 109.406 190.219C107.067 195.101 104.914 199.087 104.727 199.087C104.54 199.087 104.446 194.802 104.54 189.521C104.727 181.15 104.54 179.855 102.949 178.559C100.983 177.065 95.5553 176.766 92.5604 178.061Z" fill="black"/>
<path d="M148.246 178.759C144.315 180.552 140.197 184.638 138.232 188.524C137.109 190.816 129.528 220.413 129.528 222.505C129.528 222.804 132.429 223.004 136.079 223.004H142.537L143.473 219.217C144.034 217.224 145.532 210.547 146.842 204.568C149.369 193.407 151.428 189.621 154.423 190.816C156.575 191.713 155.546 195.4 152.832 196.795C150.96 197.792 150.211 199.287 149.275 203.671C148.62 206.661 148.339 209.451 148.527 209.75C148.807 210.049 150.773 209.949 152.832 209.551C167.432 206.96 174.544 184.738 162.752 178.759C158.915 176.766 152.551 176.766 148.246 178.759Z" fill="black"/>
<path d="M325.597 179.058C320.824 181.35 316.144 187.03 314.928 191.813C314.46 193.906 312.588 201.778 310.81 209.252L307.534 223.004H314.273H320.917L324.193 208.355C327.749 192.212 330.183 187.229 333.084 190.219C334.956 192.112 334.02 195.002 331.212 196.098C329.715 196.696 328.779 198.29 328.03 201.579C327.001 205.764 327.094 206.462 328.592 207.558C330.183 208.853 330.183 209.152 328.592 215.33C327.749 218.918 327.001 222.107 327.001 222.406C327.001 222.705 329.902 223.004 333.458 223.004C338.886 223.004 340.103 222.705 340.477 221.21C340.665 220.313 341.601 216.227 342.536 212.341C344.034 205.565 344.034 204.967 342.536 202.575C340.945 199.984 340.945 199.885 343.285 197.393C346.842 193.607 348.152 187.628 346.28 183.343C343.566 177.364 333.458 175.271 325.597 179.058Z" fill="black"/>
<path d="M361.909 178.659C360.318 179.357 358.447 181.051 357.791 182.246C356.856 184.14 344.783 221.708 344.783 222.804C344.783 222.904 347.59 223.003 351.053 222.804L357.323 222.505L361.254 209.551L365.185 196.596L365.279 209.152C365.372 223.203 366.121 225.196 370.707 223.402C372.578 222.705 374.544 219.516 379.317 209.85C382.686 202.874 385.494 197.294 385.587 197.393C385.681 197.493 384.745 202.974 383.528 209.551C382.312 216.128 381.282 221.808 381.282 222.206C381.282 222.705 384.183 223.003 387.646 223.003H394.01L397.099 204.269C398.69 194.005 400 184.439 400 182.944C400 179.556 396.912 177.164 392.7 177.164C386.991 177.164 384.651 179.357 379.504 189.82L374.825 199.586L374.731 190.318C374.731 182.545 374.45 180.851 372.859 179.157C370.707 176.865 366.308 176.566 361.909 178.659Z" fill="black"/>
<path d="M15.6304 180.752C6.45864 185.535 0.0945925 195.799 0.00100356 206.063C-0.0925853 216.626 6.36505 223.004 17.1278 223.004H22.7431L24.2405 217.423C25.0828 214.334 25.4572 211.444 24.9892 210.946C24.6149 210.547 22.5559 210.049 20.5906 209.85C17.9701 209.65 16.4727 208.853 15.0688 206.86C13.3842 204.469 13.3842 203.871 14.5073 199.984C16.1919 194.603 19.5611 192.012 25.5508 191.315C30.6982 190.816 30.3238 191.414 32.7571 180.851L33.3187 178.161H26.861C21.8072 178.161 19.3739 178.759 15.6304 180.752Z" fill="black"/>
<path d="M172.673 194.902C168.367 213.537 168.367 216.227 172.766 220.711C175.293 223.302 176.135 223.502 182.406 223.502C188.489 223.502 189.706 223.203 193.262 220.512C200.375 215.231 201.03 213.537 207.768 183.343L208.891 178.061L202.34 178.36L195.695 178.659L192.233 193.308C188.77 208.056 187.553 211.045 185.026 211.045C182.499 211.045 182.687 208.056 186.056 193.806C187.928 185.934 189.425 179.157 189.425 178.858C189.425 178.46 186.524 178.161 182.967 178.161H176.51L172.673 194.902Z" fill="black"/>
<path d="M212.354 181.848C212.073 183.941 211.512 186.631 211.231 187.827C210.763 189.92 211.138 190.119 214.132 190.119C216.004 190.119 217.502 190.617 217.502 191.115C217.502 191.713 216.004 198.49 214.226 206.163C212.448 213.935 210.95 220.911 210.95 221.608C210.95 222.705 212.541 223.004 217.314 223.004H223.585L227.328 206.761L231.072 190.617L234.909 190.318C238.653 190.019 238.746 189.92 239.776 185.037C240.431 182.247 240.899 179.556 240.899 179.058C240.899 178.559 234.909 178.161 226.954 178.161H213.009L212.354 181.848Z" fill="black"/>
<path d="M240.805 200.582L235.471 223.103L242.116 222.804L248.76 222.505L250.726 214.035C252.691 205.764 252.785 205.565 255.686 205.266C259.336 204.867 259.523 205.963 256.903 216.128L255.031 223.103L261.769 222.804L268.508 222.505L273.374 201.579C276.088 190.019 278.334 180.054 278.334 179.357C278.334 178.559 276.463 178.161 271.97 178.161H265.606L263.828 185.834C262.05 193.407 261.863 193.607 258.962 193.906C255.405 194.304 255.312 193.906 257.277 186.133C259.336 177.962 259.523 178.161 252.317 178.161H246.046L240.805 200.582Z" fill="black"/>
<path d="M296.584 179.257C292.092 180.652 284.979 186.83 282.078 191.813C278.522 197.792 276.931 205.565 278.241 210.846C280.487 219.416 285.541 223.004 295.555 223.004H301.638L302.668 218.719C303.229 216.427 303.884 213.736 304.165 212.74C304.633 211.344 303.978 211.045 300.328 211.045C295.461 211.045 292.373 209.65 292.373 207.558C292.373 206.462 294.057 206.063 299.111 205.864C306.411 205.565 305.756 206.163 307.721 197.792L308.283 195.101H301.732C298.175 195.101 295.18 194.703 295.18 194.105C295.18 192.51 299.111 190.816 304.446 190.219L309.593 189.621L310.81 184.638C311.465 181.848 312.026 179.357 312.026 178.858C312.026 177.862 300.047 178.161 296.584 179.257Z" fill="black"/>
</svg>
