<svg width="500" height="500" viewBox="0 0 500 500" fill="none" xmlns="http://www.w3.org/2000/svg">
<g id="icon">
<g id="Group 4">
<path id="Rectangle 9" d="M76.616 389.019H405.332C410.191 389.019 414.644 391.728 416.877 396.043L432.914 427.024C437.393 435.677 431.112 446 421.369 446H91.5576C86.5666 446 82.0163 443.143 79.8482 438.647L64.9066 407.666C60.7438 399.034 67.033 389.019 76.616 389.019Z" stroke="black" stroke-width="14"/>
<g id="Group 6">
<rect id="Rectangle 8" x="7" y="48" width="485.008" height="340.906" rx="13" stroke="black" stroke-width="14"/>
<rect id="Rectangle 10" x="82.0238" y="111" width="279.662" height="215.431" fill="black" stroke="black" stroke-width="10"/>
<g id="Computherm">
<path id="Vector" d="M164.807 67.9135C156.379 71.208 151.364 81.9433 155.045 88.8162C159.206 96.5979 171.795 94.6099 177.343 85.2946C179.424 81.8297 180.224 77.6265 179.477 74.5592C178.73 71.6056 176.543 68.8224 174.249 67.7999C172.062 66.7775 167.474 66.8343 164.807 67.9135ZM170.889 76.2064C174.623 80.5233 166.888 88.7594 162.78 84.7833C161.713 83.7609 161.5 80.6937 162.407 78.7625C164.114 75.0704 168.701 73.7072 170.889 76.2064Z" fill="black"/>
<path id="Vector_2" d="M188.759 67.516C186.679 68.4817 185.719 70.4129 182.145 81.7162L178.464 93.1332H182.091H185.665L187.746 86.0331C188.866 82.1138 189.933 78.933 190.093 78.933C190.253 78.933 190.306 81.8298 190.306 85.2947C190.2 92.054 190.573 93.7012 192.174 93.7012C193.987 93.7012 195.428 91.7699 198.628 84.9539C200.389 81.205 201.829 78.649 201.829 79.2738C201.776 79.8418 201.242 83.2498 200.549 86.7147L199.322 93.1332H202.949C205.937 93.1332 206.63 92.9628 206.844 92.1108C207.004 91.5995 207.857 86.4307 208.764 80.637C210.578 69.2769 210.471 67.9136 207.964 67.232C206.043 66.7208 202.949 67.3456 201.776 68.4817C201.242 68.9929 199.695 71.6625 198.362 74.4457C197.028 77.229 195.801 79.501 195.694 79.501C195.588 79.501 195.534 77.0586 195.588 74.0481C195.694 69.2769 195.588 68.5385 194.681 67.8C193.561 66.948 190.467 66.7776 188.759 67.516Z" fill="black"/>
<path id="Vector_3" d="M220.5 67.9137C218.26 68.9361 215.912 71.2649 214.792 73.4801C214.152 74.7865 209.831 91.6564 209.831 92.8492C209.831 93.0196 211.485 93.1332 213.565 93.1332H217.246L217.78 90.9748C218.1 89.8387 218.953 86.0331 219.7 82.625C221.14 76.2634 222.314 74.1049 224.021 74.7865C225.248 75.2978 224.661 77.3994 223.114 78.1946C222.047 78.7626 221.62 79.6146 221.087 82.1138C220.714 83.8179 220.554 85.4083 220.66 85.5787C220.82 85.7491 221.941 85.6923 223.114 85.4651C231.436 83.9883 235.49 71.3217 228.769 67.9137C226.582 66.7777 222.954 66.7777 220.5 67.9137Z" fill="black"/>
<path id="Vector_4" d="M321.59 68.0841C318.87 69.3905 316.202 72.6281 315.509 75.3546C315.242 76.5474 314.175 81.0346 313.162 85.2947L311.294 93.1332H315.135H318.923L320.79 84.7835C322.817 75.5818 324.204 72.7417 325.858 74.4457C326.925 75.525 326.391 77.1722 324.791 77.797C323.937 78.1378 323.404 79.0466 322.977 80.921C322.39 83.3067 322.444 83.7043 323.297 84.3291C324.204 85.0675 324.204 85.2379 323.297 88.7595C322.817 90.8043 322.39 92.622 322.39 92.7924C322.39 92.9628 324.044 93.1332 326.071 93.1332C329.165 93.1332 329.859 92.9628 330.072 92.1108C330.179 91.5996 330.712 89.2707 331.246 87.0555C332.099 83.1931 332.099 82.8523 331.246 81.489C330.339 80.0122 330.339 79.9554 331.672 78.5354C333.7 76.377 334.446 72.9689 333.38 70.5265C331.833 67.1185 326.071 65.9256 321.59 68.0841Z" fill="black"/>
<path id="Vector_5" d="M342.288 67.8568C341.381 68.2544 340.314 69.22 339.941 69.9016C339.407 70.9808 332.526 92.3947 332.526 93.0195C332.526 93.0763 334.126 93.1331 336.1 93.0195L339.674 92.8491L341.915 85.465L344.155 78.0809L344.209 85.2378C344.262 93.2467 344.689 94.3827 347.303 93.3603C348.37 92.9627 349.49 91.1451 352.21 85.6354C354.131 81.6594 355.731 78.4785 355.785 78.5353C355.838 78.5921 355.304 81.7162 354.611 85.465C353.917 89.2139 353.331 92.4515 353.331 92.6787C353.331 92.9627 354.984 93.1331 356.958 93.1331H360.586L362.346 82.4546C363.253 76.6041 364 71.1512 364 70.2992C364 68.368 362.239 67.0048 359.839 67.0048C356.585 67.0048 355.251 68.2544 352.317 74.2185L349.65 79.7849L349.596 74.5025C349.596 70.072 349.436 69.1064 348.53 68.1408C347.303 66.8344 344.795 66.664 342.288 67.8568Z" fill="black"/>
<path id="Vector_6" d="M144.909 69.0497C139.681 71.7761 136.054 77.6266 136.001 83.4771C135.947 89.4979 139.628 93.1332 145.763 93.1332H148.964L149.817 89.9523C150.297 88.1915 150.511 86.5443 150.244 86.2603C150.03 86.0331 148.857 85.7491 147.737 85.6355C146.243 85.5219 145.389 85.0675 144.589 83.9315C143.629 82.5682 143.629 82.2274 144.269 80.0122C145.229 76.945 147.15 75.4682 150.564 75.0706C153.498 74.7866 153.285 75.1274 154.672 69.1065L154.992 67.5729H151.311C148.43 67.5729 147.043 67.9137 144.909 69.0497Z" fill="black"/>
<path id="Vector_7" d="M234.423 77.1153C231.969 87.737 231.969 89.2707 234.477 91.8267C235.917 93.3035 236.397 93.4171 239.971 93.4171C243.439 93.4171 244.132 93.2467 246.159 91.7131C250.214 88.7027 250.587 87.737 254.428 70.5264L255.068 67.516L251.334 67.6864L247.546 67.8568L245.573 76.2065C243.599 84.613 242.905 86.317 241.465 86.317C240.025 86.317 240.131 84.613 242.052 76.4905C243.119 72.0032 243.972 68.1408 243.972 67.9704C243.972 67.7432 242.318 67.5728 240.291 67.5728H236.61L234.423 77.1153Z" fill="black"/>
<path id="Vector_8" d="M257.042 69.6745C256.882 70.8673 256.562 72.4009 256.402 73.0825C256.135 74.2753 256.348 74.3889 258.055 74.3889C259.122 74.3889 259.976 74.673 259.976 74.957C259.976 75.2978 259.122 79.1602 258.109 83.5339C257.095 87.9643 256.242 91.9404 256.242 92.338C256.242 92.9628 257.149 93.1332 259.869 93.1332H263.443L265.577 83.8747L267.711 74.673L269.898 74.5025C272.032 74.3321 272.085 74.2753 272.672 71.4921C273.046 69.9017 273.312 68.3681 273.312 68.0841C273.312 67.8001 269.898 67.5729 265.364 67.5729H257.415L257.042 69.6745Z" fill="black"/>
<path id="Vector_9" d="M273.259 80.353L270.218 93.1899L274.006 93.0195L277.793 92.8491L278.914 88.0211C280.034 83.3066 280.087 83.193 281.741 83.0226C283.821 82.7954 283.928 83.4202 282.434 89.2139L281.368 93.1899L285.208 93.0195L289.049 92.8491L291.823 80.921C293.37 74.3321 294.651 68.652 294.651 68.2544C294.651 67.8 293.584 67.5728 291.023 67.5728H287.396L286.382 71.9465C285.368 76.2633 285.262 76.3769 283.608 76.5473C281.581 76.7745 281.528 76.5473 282.648 72.1169C283.821 67.4592 283.928 67.5728 279.82 67.5728H276.246L273.259 80.353Z" fill="black"/>
<path id="Vector_10" d="M305.053 68.1977C302.493 68.9929 298.438 72.5145 296.785 75.3546C294.757 78.7626 293.851 83.1931 294.597 86.2035C295.878 91.0884 298.758 93.1332 304.466 93.1332H307.934L308.521 90.6907C308.841 89.3843 309.214 87.8507 309.374 87.2827C309.641 86.4875 309.267 86.3171 307.187 86.3171C304.413 86.3171 302.653 85.5219 302.653 84.3291C302.653 83.7043 303.613 83.4771 306.493 83.3635C310.654 83.1931 310.281 83.5339 311.401 78.7626L311.721 77.229H307.987C305.96 77.229 304.253 77.0018 304.253 76.661C304.253 75.7522 306.493 74.7866 309.534 74.4457L312.468 74.1049L313.162 71.2649C313.535 69.6745 313.855 68.2545 313.855 67.9705C313.855 67.4025 307.027 67.5729 305.053 68.1977Z" fill="black"/>
</g>
<g id="Gombok">
<circle id="Ellipse 1" cx="435.934" cy="94" r="8" stroke="black" stroke-width="6"/>
<circle id="Ellipse 2" cx="435.934" cy="156" r="8" stroke="black" stroke-width="6"/>
<circle id="Ellipse 3" cx="435.934" cy="218" r="8" stroke="black" stroke-width="6"/>
<circle id="Ellipse 4" cx="435.934" cy="280" r="8" stroke="black" stroke-width="6"/>
<circle id="Ellipse 5" cx="435.934" cy="342" r="8" stroke="black" stroke-width="6"/>
</g>
</g>
</g>
</g>
</svg>
